<?xml version="1.0" encoding="utf-8"?>
<!-- Generator: Adobe Illustrator 22.1.0, SVG Export Plug-In . SVG Version: 6.00 Build 0)  -->
<svg version="1.1" id="Layer_1" xmlns="http://www.w3.org/2000/svg" xmlns:xlink="http://www.w3.org/1999/xlink" x="0px" y="0px"
	 viewBox="0 0 750 750" style="enable-background:new 0 0 750 750;" xml:space="preserve">
<style type="text/css">
	.st0{fill:#50ECD2;}
	.st1{fill:#64C8F4;}
	.st2{fill:#F5EA83;}
	.st3{fill:#F2BD76;}
	.st4{fill:#E56677;}
	.st5{fill:#65C8F4;}
	.st6{fill:#F2BD77;}
	.st7{fill:#9095D8;}
</style>
<path class="st0" d="M723.8,349.6c-0.6-6.6-1.1-13.2-1.9-19.8c-0.9-7-2-13.9-3.4-20.8c-2.3-11.8-5.1-23.4-8.6-34.9
	c-3.6-12-7.9-23.7-12.8-35.3c-6.1-14.4-13.1-28.3-21-41.7c-7.5-12.6-15.7-24.7-24.7-36.3c-7.4-9.5-15.2-18.8-23.7-27.4
	c-6.7-6.9-13.5-13.6-20.7-19.9c-6.4-5.6-12.8-11-19.6-16.1c-11.8-9-24.2-17.3-37-24.7C537.1,64.8,523.2,58,508.9,52
	c-14.5-6-29.3-11-44.5-14.9c-6.5-1.7-12.9-3.5-19.5-4.5c0.3,6.3,1.5,12.6,2.8,18.7c3,15,7.1,29.7,12.1,44.1
	c4.2,12,8.8,23.9,13.9,35.6s10.6,23.2,16.5,34.6c8.2,16,17.1,31.6,26.4,47c8,13.2,16.3,26.2,25,38.9c10.1,14.8,20.6,29.3,31.2,43.9
	c8.6,11.9,15.7,24.7,21.5,38.2c4.5,10.4,8.1,21.1,10.9,32c2,7.5,3.5,15.2,4.6,22.9c1,7.5,1.9,15,2.3,22.6c0.3,4.9,0.1,9.9,0.3,14.8
	l0,0c6.2,1.5,12.3,3,18.5,4.5c19.2,4.6,38.6,8.6,58,12.5c8.8,1.7,17.6,3.2,26.4,4.8c0.6,0.1,1.5,0.1,2,0.1c1.2-6.3,2.2-12.7,3.2-19
	c1-6.2,1.7-12.5,2.3-18.8c0.8-7.4,1.4-14.8,1.5-22.2C724.6,374.9,724.8,362.2,723.8,349.6z"/>
<path class="st1" d="M292.9,76.6c-7.8,18.4-16.4,36.5-25.6,54.2c-13.6,26-28.8,51.1-45.6,75.1c-2.5,3.6-5.2,7-7.7,10.6
	c0,0.1,0,0.3,0,0.4c12.1,12.1,24.6,23.7,37.7,34.8c31.6-31.6,75.2-51.2,123.4-51.2c96.3,0,174.3,78.1,174.3,174.3
	c0,11.1-1,21.9-3,32.4c6.6,2.1,13.3,4.3,19.9,6.3c11.3,3.3,22.6,6.4,34,9.6c3.4,1,6.8,1.9,10.3,2.7c1.2,0.3,1.5,0.8,1.5,1.9
	c-0.1,3.4,0,6.9,0,10.3l0,0c0.8-1.6,0.3-3.3,0.3-5c0.1-2.4,0-4.8,0-7.2l0,0l0,0c-0.2-4.9,0-9.8-0.3-14.8c-0.5-7.6-1.3-15.1-2.3-22.6
	c-1.1-7.7-2.6-15.4-4.6-22.9c-2.8-10.9-6.4-21.6-10.9-32c-5.8-13.5-12.8-26.3-21.5-38.2c-10.5-14.5-21.1-29-31.2-43.9
	c-8.7-12.8-16.9-25.8-25-38.9c-9.4-15.3-18.2-31-26.4-47c-5.9-11.3-11.3-22.9-16.5-34.6c-5.1-11.7-9.8-23.5-13.9-35.6
	c-5-14.4-9.1-29.1-12.1-44.1c-1.2-6.2-2.4-12.3-2.8-18.6c-1.9-0.8-4-0.9-6-1.3c-11.2-2.3-22.5-3.6-33.9-4.6
	c-6.8-0.6-13.7-1.1-20.6-1c-8,0.1-16,0-24,0c-0.6,0-1.2,0-1.7,0c-6.6,0.7-13.4,0.8-20,1.7c-4.1,0.6-8.3,0.9-12.4,1.5
	c-5.3,0.8-10.6,1.7-15.9,2.5C305.1,46.8,299.2,61.8,292.9,76.6z"/>
<path class="st0" d="M165,653.6c6.7,5.1,13.5,10,20.6,14.4c4.4-10.8,8.8-21.5,12.7-32.4c4.8-13,9.2-26.1,13.1-39.3
	c3-10.3,5.9-20.6,8.4-31.1c2.4-10.4,4.7-20.8,6.5-31.3c1.2-6.8,2.4-13.7,3.3-20.6c0.8-5.7,1.4-11.4,1.9-17.1
	c0.6-6.7,1.1-13.4,1.6-20.1c-20.4-28.6-32.5-63.5-32.5-101.3c0-2.4,0.1-4.8,0.2-7.1c-3.8,0.8-7.6,1.6-11.4,2.3
	c-7.9,1.3-15.7,3.2-23.5,5c-17.3,4-34.4,9-51.2,14.8c-14.6,5-29,10.5-43.1,16.6c-10.3,4.5-20.5,9.2-30.6,14.2
	c-3.7,1.8-7.2,4.1-11.1,5.4c0.1,1.3,0.2,2.7,0.5,4c1.4,7.2,2.6,14.3,4.2,21.5c3.6,16.3,8.4,32.3,14.3,47.9
	c5.7,14.9,12.4,29.3,20.1,43.3c4.2,7.6,8.6,15.1,13.3,22.4c6.6,10.2,13.8,19.9,21.4,29.4c6.8,8.4,14.1,16.4,21.4,24.3
	c1.2,1.3,2.5,2.6,3.8,3.9l0,0c3.9,3.8,8,7.5,12,11.2C148.7,640.9,156.7,647.4,165,653.6z"/>
<path class="st2" d="M391.7,721.3c18.9-12.4,13.8-33.5,18.3-50c3.7-13.5,4.9-24.8,7-38.7c1.2-8.1,3-17.8,3.7-26
	c0.8-7.8,1.3-15.9,1.7-23.7c0.4-7.3-4.1-14.8-4.1-22.1c0-3.2-0.3-4.9,0.4-9.5c0.3-2.5-0.3-5-0.4-7.6c-13.8,3.5-28.3,5.4-43.2,5.4
	c-58.5,0-110.3-28.8-141.9-73c-0.5,6.7-1,13.4-1.6,20.1c-0.5,5.7-1.2,11.4-1.9,17.1c-0.9,6.9-2.1,13.7-3.3,20.6
	c-1.8,10.5-4.1,20.9-6.5,31.3c-2.5,10.4-5.3,20.8-8.4,31.1c-3.9,13.3-8.3,26.3-13.1,39.3c-4,10.9-8.4,21.6-12.7,32.4
	c0.6,0.4,1.2,0.7,1.8,1.1c15.3,10,31.5,18.5,48.2,25.8c13.1,5.7,26.5,10.6,40.2,14.7c2.1,0.6,4.2,1.2,6.3,1.8
	c0.4,0.1,0.9,0.2,1.3,0.4c1.7,0.5,3.4,0.9,5.1,1.3c1.1,0.3,2.3,0.6,3.4,0.9c0.2,0,0.4,0.1,0.6,0.1c13.5,3.3,27.2,5.8,41.1,7.5
	c8.6,1,17.2,1.8,25.8,2.2c4.1,0.2,8.2,0.2,12.3,0.1c3.9,0,7.8-0.1,11.7-0.1C386.7,722.9,390.9,722.7,391.7,721.3z"/>
<path class="st3" d="M555.9,639.2c9.4-19.6,18-39.6,25.6-60c4-10.8,7.9-21.6,11.3-32.7c3.5-11.6,6.8-23.2,9.2-35
	c0.1-0.3,0.3-0.7,0.4-1c0-0.1,0-0.2,0-0.4l0,0c-2.8-3.6-5.5-7.3-8.4-10.8c-9.6-12-19.9-23.5-31.1-34.1c-8-7.6-16.2-15-25-21.6
	c-0.7-0.5-1.1-1.3-1.9-1.5c-20.9,50-64.4,88.1-117.7,101.7c0.1,2.5,0,7.6,0,7.6s0.1,6.4,0.1,9.5c0,7.3-0.4,14.6-0.8,21.9
	c-0.4,7.9-1,15.7-1.8,23.5c-0.8,8.2-1.8,16.3-3,24.5c-2.1,13.9-4.9,27.5-8.6,41.1c-4.5,16.5-10.6,32.4-18.6,47.5
	c-0.8,1.4,0,0-2.2,4.5c0.8,0,1.8,0,2.6,0c2.9,0,5.7-0.1,8.6-0.3c7.1-0.4,14.1-1,21.1-1.8c8.8-1,17.5-2.3,26.2-3.9
	c14.2-2.7,28.2-6.3,41.9-10.7c16.2-5.2,32-11.6,47.2-19.4l0,0l0,0C539.6,671.8,548,655.6,555.9,639.2z"/>
<path class="st0" d="M45.1,261c-4.3,12.3-7.6,24.9-10.6,37.6c-2.9,12.5-4.8,25.2-6.3,37.9c-0.9,7.4-1.4,14.8-1.7,22.2
	c-0.3,7,0,14,0,20.9c6.3-3.1,13.5-1.1,19.5-4.6c11.8-6.9,27.7-16.2,39-24c11.5-7.9,17.3-19.7,28.1-28.5c7-5.7,13.8-11.6,20.6-17.6
	C145,295,169.5,276.8,180,266c5.3-5.4-3.3-3.3,1.5-9.2c0.3-0.4,0.5-0.6,1-0.6l0,0l0,0c0-0.3,0.7-1.3,0.8-1.5
	c-5.2-8.5-9.3-17.5-15-25.8c-9.3-13.6-19.1-26.7-30-39.1c-10.6-12.1-21-28.4-35.5-33.1l0,0l0,0c-0.2,0.3-0.4,0.5-0.7,0.8
	c-5.3,6.6-10.3,13.4-15.1,20.4c-0.3,0.5-0.7,1-1,1.5c-0.9,1.4-1.8,2.7-2.7,4.1c-0.4,0.6-0.8,1.2-1.2,1.8
	c-9.4,14.5-17.6,29.6-24.7,45.3C52.8,240.5,48.7,250.7,45.1,261z"/>
<path class="st4" d="M159,150.8c7.4,11,15.3,21.5,23.7,31.8c4.9,6,10,11.9,15.3,17.7c4.6,5,9.2,10,14,14.8c0.6,0.5,1,1.3,1.9,1.4
	l0,0c2.6-3.5,5.2-7,7.7-10.6c16.9-24,32-49.1,45.6-75.1c9.2-17.7,17.8-35.8,25.6-54.2c6.3-14.8,12.2-29.8,17.5-45.1
	c-4.3,0.9-8.7,1.7-13,2.7c-16.3,3.9-32.3,8.6-47.9,14.6c-10.1,3.9-20.1,8.3-29.8,13.2c-8.2,4.1-16.3,8.5-24.1,13.3
	c-9.4,5.7-18.6,11.8-27.5,18.4c-6.1,4.5-11.9,9.2-17.8,13.9c-4,3.2-7.6,6.8-11.4,10.2C144.9,129.2,151.8,140.1,159,150.8z"/>
<path class="st5" d="M206.7,306.6c-5.8-14.8-12.5-29.1-20.1-43.1c-1.3-2.5-3-5.3-4.3-7.8l0,0c-0.3,0.4-0.5,0.6-0.8,1
	c-4.8,5.9-10,11.4-15.3,16.9c-10.5,10.8-21.1,21.4-32.4,31.3c-6.8,6-13.6,11.8-20.6,17.6c-10.8,8.8-22,17.1-33.5,25.1
	c-11.3,7.8-22.8,15.1-34.7,22c-6.1,3.5-12.2,7-18.4,10.1c-0.3,15.5,1.3,30.9,3.5,46.3l0,0c3.9-1.4,7.4-3.6,11.1-5.4
	c10.1-5,20.3-9.7,30.6-14.2c14.1-6.1,28.5-11.6,43.1-16.6c16.8-5.7,33.9-10.7,51.2-14.8c7.8-1.8,15.6-3.7,23.5-5
	c3.8-0.6,7.6-1.5,11.4-2.3c0.7-17.8,4.1-34.8,9.7-50.8C209.1,313.5,208,310,206.7,306.6z"/>
<path class="st5" d="M715.3,447.6c-8.8-1.6-17.6-3-26.4-4.8c-19.4-3.8-38.8-7.9-58-12.5c-6.2-1.5-12.3-3-18.5-4.5l0,0
	c0,2.4,0.1,4.8,0,7.2c-0.1,1.7,0.4,3.4-0.3,5v0.1l0,0c-5,15.9-5.9,30-8,43.9c-1.5,10.1,0.7,18.2-1.6,28.1l0,0c0,0.1,0,0.2,0,0.4
	c3.6,4.5,6.4,9.6,9.6,14.4c6.6,9.9,12.7,20.5,18.1,31.1c6.2,12,11.7,24.1,16.3,36.8c0.2,0.5,0.6,0.6,0.9,1.1
	c2.1-1.8,3.6-4.2,5.3-6.3c11.6-14.9,21.8-30.7,30.7-47.3c5-9.3,9.5-18.7,13.7-28.4c6.5-15.2,11.9-30.8,16.1-46.8
	c1.5-5.7,3.1-11.5,4.1-17.3l0,0C716.5,447.7,715.9,447.7,715.3,447.6z"/>
<path class="st4" d="M646.7,592.3c-4.6-12.7-10.2-24.8-16.4-36.8c-5.4-10.6-11.4-20.9-17.9-30.8c-3.2-4.8-6.4-10-10-14.6
	c-0.1,0.3-0.3,1-0.4,1.4c-2.4,11.9-5.6,23.5-9.2,35c-3.4,11-7.3,21.9-11.3,32.7c-7.6,20.4-16.2,40.4-25.6,60
	c-7.9,16.4-16.3,32.6-25.1,48.6l0,0c4.1-2.2,8.3-4.2,12.4-6.4c7.7-4.2,15.1-8.7,22.5-13.4c9.4-6.1,18.3-12.7,27.1-19.6
	c9.8-7.7,19-16,28-24.7c6.7-6.4,12.9-13.3,18.9-20.3c2.7-3.1,5.5-6.1,7.7-9.5C647.2,593.3,646.9,592.9,646.7,592.3z"/>
<path class="st6" d="M102.8,156.6c11.9,10.8,23.1,22.2,33.7,34.3c10.8,12.4,20.9,25.4,30.2,39c5.6,8.3,10.4,17.3,15.6,25.8l0.4-0.4
	c3.8-3.4,6.7-7.5,10-11.4c6.6-7.7,12.7-15.9,18.9-24c0.8-1,1.6-2.1,2.4-3.1c0-0.1,0-0.3,0-0.4l0,0c-0.9-0.1-1.3-0.9-1.9-1.4
	c-4.9-4.8-9.4-9.8-14-14.8c-5.3-5.8-10.4-11.7-15.3-17.7c-8.4-10.2-16.3-20.8-23.7-31.8c-7.2-10.7-14-21.6-20.1-33
	c-5.3,5.2-10.9,10.2-16,15.7c-1.8,2-3.6,3.9-5.4,5.9c-3.2,3.5-6.4,7.1-9.5,10.8c-0.4,0.5-0.8,0.9-1.2,1.4
	C105.5,153.2,104.1,154.9,102.8,156.6L102.8,156.6z"/>
<path class="st7" d="M612,438c0-3.4,0-6.9,0-10.3c0-1.1-0.3-1.6-1.5-1.9c-3.4-0.8-6.9-1.7-10.3-2.7c-11.3-3.2-22.7-6.3-34-9.6
	c-6.7-2-13.3-4.2-19.9-6.3c-2.3,12.1-5.8,23.8-10.4,34.9c0.8,0.2,1.3,1,1.9,1.5c8.8,6.6,17,14,25,21.6
	c11.2,10.6,21.5,22.1,31.1,34.1c2.9,3.6,5.6,7.2,8.4,10.8c2.4-10,4.2-20,5.7-30.2C610.1,466,611.5,452.1,612,438L612,438
	C612,438.1,612,438,612,438z"/>
<path class="st2" d="M206.7,306.6c1.3,3.4,2.4,6.9,3.9,10.2c8.7-24.8,22.9-47,41-65.2c-13.1-11-25.6-22.7-37.7-34.8
	c-0.8,1-1.6,2.1-2.4,3.1c-6.2,8.1-12.3,16.2-18.9,24c-3.3,3.8-6.1,7.9-9.9,11.3l0,0c-0.4,0.4-0.2,0.2-0.4,0.4l0.2,0.4
	c1.3,2.5,2.7,4.9,4,7.4C194.1,277.5,200.9,291.8,206.7,306.6z"/>
</svg>
